<svg width="175" height="198" viewBox="0 0 175 198" fill="none" xmlns="http://www.w3.org/2000/svg">
<path fill-rule="evenodd" clip-rule="evenodd" d="M146.349 31.3616C147.725 27.8673 148.133 24.3795 148.731 20.7283C148.848 20.0153 148.363 19.3445 147.651 19.227C146.937 19.1095 146.264 19.5943 146.147 20.3073C145.58 23.7695 145.218 27.088 143.912 30.4072C143.648 31.0785 143.979 31.8385 144.652 32.0999C145.324 32.3656 146.085 32.033 146.349 31.3616Z" fill="#303030"/>
<path fill-rule="evenodd" clip-rule="evenodd" d="M152.984 39.3801C159.77 34.6794 166.418 28.3536 171.36 21.7289C171.791 21.1502 171.67 20.3307 171.09 19.9018C170.51 19.4728 169.69 19.5911 169.259 20.1699C164.48 26.575 158.05 32.6931 151.489 37.2351C150.896 37.6472 150.749 38.4617 151.162 39.0525C151.574 39.6434 152.391 39.7922 152.984 39.3801Z" fill="#303030"/>
<path fill-rule="evenodd" clip-rule="evenodd" d="M153.71 45.6047C159.119 47.2559 165.028 46.4675 170.351 44.9466C171.046 44.7456 171.448 44.0225 171.248 43.3329C171.049 42.6389 170.323 42.2387 169.628 42.4353C164.78 43.8224 159.401 44.6116 154.475 43.1085C153.783 42.8973 153.051 43.2864 152.841 43.9737C152.63 44.661 153.019 45.3936 153.71 45.6047Z" fill="#303030"/>
<path d="M19.0581 121.054L19.058 121.054C18.8746 120.489 18.2656 120.175 17.697 120.357C17.128 120.537 16.8143 121.146 16.9982 121.713C18.2226 125.494 20.5487 128.375 23.9483 130.425C24.4594 130.734 25.1255 130.569 25.4337 130.062L25.4339 130.062C25.7437 129.55 25.5785 128.886 25.0652 128.579L24.8975 128.86L25.0664 128.58C22.121 126.805 20.1162 124.324 19.0581 121.054Z" fill="#303030" stroke="#011625" stroke-width="0.654405"/>
<path d="M48.1229 139.844L48.2905 139.563C47.6575 139.186 47.0479 138.777 46.4283 138.362C46.3378 138.301 46.2472 138.241 46.1562 138.18L46.1556 138.179C43.7845 136.602 41.6427 134.806 39.5302 132.877L39.3095 133.119L39.5301 132.877C38.9627 132.359 38.3924 131.841 37.8213 131.323C31.5985 125.676 25.2768 119.939 21.4794 112.44L21.4793 112.44C21.211 111.91 20.5618 111.692 20.0273 111.96C19.4919 112.225 19.2793 112.874 19.5467 113.408L19.5473 113.409C23.5101 121.236 30.0991 127.222 36.4747 133.015C37.0083 133.499 37.5405 133.983 38.0695 134.466L38.0695 134.466C39.4375 135.715 40.8238 136.915 42.2775 138.042C38.6222 137.032 34.0338 135.927 29.7649 135.444C27.556 135.194 25.4224 135.118 23.5266 135.297C21.6343 135.476 19.9556 135.912 18.6746 136.704L18.6745 136.704C10.7245 141.622 7.01946 149.889 9.66255 156.926L9.66259 156.926C9.89433 157.543 10.162 158.147 10.4659 158.733C4.2709 160.477 0.446196 166.382 1.55093 172.807C1.65166 173.396 2.21221 173.788 2.79813 173.692L2.79813 173.692L2.80025 173.691C3.38736 173.59 3.78532 173.036 3.68468 172.446L3.6846 172.446C2.73674 166.933 6.17165 161.894 11.6468 160.661C12.143 161.351 12.698 162.002 13.3116 162.6C13.6103 162.891 14.2847 163.46 14.9585 163.702C15.6931 163.968 16.4637 163.897 17.0228 163.276L17.0229 163.275C17.6763 162.548 17.8379 161.824 17.7039 161.177C17.5768 160.561 17.1627 160.024 16.5802 159.609L16.5801 159.609C16.0242 159.214 15.288 158.918 14.57 158.717C13.9244 158.536 13.2725 158.425 12.7441 158.388C12.3295 157.683 11.9775 156.941 11.6895 156.174C9.41725 150.121 12.7215 142.927 19.8189 138.537C21.006 137.803 22.6644 137.443 24.6239 137.357C26.5775 137.271 28.7958 137.458 31.076 137.788C37.2519 138.681 43.783 140.694 46.8677 141.644C47.3303 141.787 47.7154 141.906 48.0102 141.993L48.0109 141.993C48.2994 142.078 48.5371 142.131 48.7162 142.161C48.8055 142.176 48.8823 142.186 48.945 142.192C48.9969 142.196 49.0649 142.2 49.1245 142.191C49.6346 142.12 49.8573 141.796 49.9606 141.581L49.9621 141.578C50.1041 141.275 50.1133 140.993 50.0588 140.75L50.0583 140.748C49.9818 140.416 49.7732 140.114 49.4127 139.907L49.4105 139.906C49.2128 139.794 48.9451 139.712 48.6877 139.65L48.6844 139.649C48.6328 139.637 48.5813 139.628 48.5357 139.619C48.4877 139.611 48.4482 139.604 48.4095 139.596C48.3715 139.588 48.3425 139.581 48.32 139.574C48.2969 139.567 48.2888 139.562 48.2894 139.563L48.1229 139.844ZM48.1229 139.844C48.2032 139.892 48.3243 139.914 48.4496 139.936C48.5036 139.946 48.5583 139.956 48.6109 139.968L45.9743 138.452C46.0648 138.512 46.1552 138.573 46.2456 138.633C46.8646 139.048 47.4819 139.462 48.1229 139.844ZM19.8392 113.261C19.6521 112.888 19.8016 112.436 20.1732 112.253C20.5457 112.066 20.9999 112.218 21.1875 112.588L19.8392 113.261ZM19.8392 113.261C23.7734 121.032 30.3179 126.978 36.7021 132.779C37.2331 133.261 37.7629 133.743 38.2901 134.224L19.8392 113.261ZM15.5814 161.601C15.5801 161.605 15.5778 161.61 15.5739 161.618C15.5733 161.619 15.5727 161.62 15.5721 161.622L15.5814 161.601ZM15.5814 161.601C15.577 161.589 15.5649 161.566 15.53 161.529C15.4838 161.481 15.4179 161.43 15.3242 161.364L15.3238 161.363C15.1879 161.266 15.0303 161.176 14.8585 161.093C15.0212 161.247 15.2918 161.478 15.5667 161.619L15.5814 161.601ZM29.7281 135.769C25.3387 135.272 21.2895 135.472 18.8467 136.982C10.9836 141.846 7.39772 149.966 9.96886 156.811C10.2047 157.438 10.4782 158.053 10.7897 158.646L29.7281 135.769Z" fill="#303030" stroke="#011625" stroke-width="0.654405"/>
<path d="M74.3086 33.6578C73.9699 32.2547 71.9742 32.2547 71.6355 33.6578L71.1968 35.4751C71.0758 35.9765 70.6843 36.368 70.1829 36.4891L68.3655 36.9278C66.9624 37.2665 66.9624 39.2621 68.3655 39.6008L70.1829 40.0395C70.6843 40.1606 71.0758 40.5521 71.1968 41.0534L71.6355 42.8708C71.9742 44.2739 73.9699 44.2739 74.3086 42.8708L74.7473 41.0534C74.8683 40.5521 75.2598 40.1606 75.7612 40.0395L77.5786 39.6008C78.9816 39.2621 78.9816 37.2664 77.5786 36.9278L75.7612 36.4891C75.2598 36.368 74.8683 35.9765 74.7473 35.4751L74.3086 33.6578Z" fill="#417BA4"/>
<circle cx="132.849" cy="130.209" r="3.92643" fill="#417BA4"/>
<path d="M57.6801 79.0605C58.6725 71.6277 61.5253 64.5682 65.9724 58.5405C70.4196 52.5128 76.3161 47.7133 83.1119 44.5897C89.9078 41.4662 97.3815 40.1204 104.836 40.6779C112.29 41.2353 119.483 43.6779 125.742 47.7777L142.795 41.9618C143.309 41.7917 143.861 41.773 144.386 41.9078C144.911 42.0427 145.386 42.3254 145.756 42.7227C146.125 43.1199 146.374 43.615 146.472 44.1494C146.57 44.6839 146.513 45.2353 146.308 45.7384L139.47 62.1036C143.107 68.1824 145.24 75.0468 145.69 82.1223C146.14 89.1977 144.893 96.2784 142.056 102.772C139.218 109.265 134.871 114.982 129.379 119.444C123.887 123.905 117.409 126.983 110.489 128.417C103.568 129.852 96.405 129.603 89.5998 127.691C82.7946 125.778 76.5451 122.258 71.3743 117.426C66.2034 112.593 62.2618 106.588 59.8793 99.9128C57.4967 93.238 56.7426 86.0877 57.6801 79.0605Z" fill="#303030"/>
<path d="M28.5355 98.9004C29.5279 106.333 32.3808 113.393 36.8279 119.42C41.275 125.448 47.1715 130.248 53.9674 133.371C60.7632 136.495 68.237 137.841 75.6914 137.283C83.1459 136.726 90.3381 134.283 96.5972 130.183L113.65 135.999C114.165 136.169 114.717 136.188 115.242 136.053C115.766 135.918 116.242 135.636 116.611 135.238C116.981 134.841 117.229 134.346 117.327 133.811C117.425 133.277 117.368 132.726 117.164 132.223L110.325 115.857C113.962 109.779 116.095 102.914 116.545 95.8387C116.995 88.7632 115.749 81.6825 112.911 75.1893C110.074 68.6961 105.727 62.9793 100.235 58.5174C94.7425 54.0555 88.265 50.9784 81.3441 49.5435C74.4232 48.1087 67.2604 48.3579 60.4553 50.2702C53.6501 52.1826 47.4005 55.7025 42.2297 60.5354C37.0589 65.3682 33.1173 71.3734 30.7347 78.0482C28.3522 84.723 27.5981 91.8732 28.5355 98.9004Z" fill="#FF4040"/>
<path fill-rule="evenodd" clip-rule="evenodd" d="M81.7666 97.5752C81.7666 103.208 77.6376 107.329 73.0713 107.329C68.5049 107.329 64.3759 103.208 64.3759 97.5752H58.4863C58.4863 105.968 64.7803 113.218 73.0713 113.218C81.3623 113.218 87.6562 105.968 87.6562 97.5752H81.7666Z" fill="white"/>
<path d="M57.1992 90.1474C60.1213 90.1474 62.4902 87.7785 62.4902 84.8564C62.4902 81.9343 60.1213 79.5654 57.1992 79.5654C54.2771 79.5654 51.9082 81.9343 51.9082 84.8564C51.9082 87.7785 54.2771 90.1474 57.1992 90.1474Z" fill="white"/>
<path d="M88.9453 90.1474C91.8674 90.1474 94.2363 87.7785 94.2363 84.8564C94.2363 81.9343 91.8674 79.5654 88.9453 79.5654C86.0231 79.5654 83.6543 81.9343 83.6543 84.8564C83.6543 87.7785 86.0231 90.1474 88.9453 90.1474Z" fill="white"/>
</svg>
