<svg width="87" height="79" viewBox="0 0 87 79" fill="none" xmlns="http://www.w3.org/2000/svg">
<path d="M44.5945 78.9601C63.4136 78.9601 78.6695 63.7042 78.6695 44.8851C78.6695 26.066 63.4136 10.8101 44.5945 10.8101C25.7754 10.8101 10.5195 26.066 10.5195 44.8851C10.5195 63.7042 25.7754 78.9601 44.5945 78.9601Z" fill="url(#paint0_linear_52_137)"/>
<path d="M24.0535 58.0799L38.3718 18.7627L68.566 50.6885L33.4971 66.7869C27.8794 69.3657 21.9384 63.888 24.0535 58.0799Z" fill="#E1DCEB"/>
<path d="M57.3763 31.1797C61.5452 35.6215 64.9055 40.0252 66.969 43.5518C68.0014 45.3162 68.705 46.8541 69.0255 48.0634C69.1858 48.6682 69.2481 49.1833 69.2122 49.5996C69.1765 50.0148 69.0442 50.3219 68.8241 50.5285C68.6039 50.7351 68.289 50.8477 67.8724 50.8571C67.4546 50.8666 66.9445 50.7717 66.3511 50.5735C65.1645 50.1771 63.6743 49.3775 61.9788 48.2354C58.5899 45.9527 54.4079 42.3203 50.239 37.8785C46.07 33.4367 42.7097 29.033 40.6462 25.5063C39.6138 23.742 38.9102 22.2041 38.5897 20.9948C38.4295 20.39 38.3671 19.8749 38.403 19.4586C38.4388 19.0434 38.5711 18.7363 38.7912 18.5297C39.0113 18.3231 39.3262 18.2105 39.7428 18.2011C40.1606 18.1916 40.6707 18.2865 41.2641 18.4847C42.4507 18.8811 43.9409 19.6807 45.6364 20.8227C49.0253 23.1055 53.2073 26.7379 57.3763 31.1797Z" fill="#011625" stroke="#011625" stroke-width="0.29"/>
<mask id="mask0_52_137" style="mask-type:alpha" maskUnits="userSpaceOnUse" x="23" y="18" width="46" height="50">
<path d="M24.0535 58.0804L38.3718 18.7632L68.566 50.689L33.4971 66.7874C27.8794 69.3662 21.9384 63.8885 24.0535 58.0804Z" fill="#E1DCEB"/>
</mask>
<g mask="url(#mask0_52_137)">
<path fill-rule="evenodd" clip-rule="evenodd" d="M37.701 44.9067C31.6516 36.9843 28.5907 27.5394 27.6035 21.1983L32.4748 20.4399C33.3635 26.1477 36.1683 34.776 41.6193 41.9147C47.0191 48.9862 54.9191 54.5006 66.1856 54.5006V59.4306C53.0371 59.4306 43.8018 52.8962 37.701 44.9067Z" fill="#011625"/>
<path fill-rule="evenodd" clip-rule="evenodd" d="M38.3505 43.392C32.301 35.4697 29.2402 26.0248 28.2529 19.6837L33.1242 18.9253C34.0129 24.6331 36.8177 33.2614 42.2688 40.4C47.6685 47.4715 55.5685 52.986 66.835 52.986V57.916C53.6865 57.916 44.4512 51.3816 38.3505 43.392Z" fill="white"/>
<path fill-rule="evenodd" clip-rule="evenodd" d="M30.5585 54.8637C24.509 46.9413 21.4482 37.4964 20.4609 31.1554L25.3323 30.397C26.2209 36.1047 29.0257 44.7331 34.4768 51.8717C39.8765 58.9432 47.7765 64.4576 59.0431 64.4576V69.3876C45.8945 69.3876 36.6592 62.8532 30.5585 54.8637Z" fill="white"/>
</g>
<circle cx="51.701" cy="61.2703" r="8.7" fill="#FF4040"/>
<path fill-rule="evenodd" clip-rule="evenodd" d="M55.2211 58.6302C55.5579 58.9729 55.5532 59.5237 55.2105 59.8606L51.0802 63.9206C50.7417 64.2533 50.199 64.2533 49.8605 63.9206L48.1908 62.2793C47.8481 61.9425 47.8434 61.3916 48.1802 61.049C48.5171 60.7063 49.0679 60.7016 49.4105 61.0384L50.4704 62.0802L53.9908 58.6197C54.3334 58.2828 54.8843 58.2876 55.2211 58.6302Z" fill="white"/>
<path d="M68.712 19.733L68.712 19.7329C69.2268 18.4255 69.432 17.1216 69.647 15.7549C69.6837 15.522 69.7206 15.2874 69.7594 15.0505L68.712 19.733ZM68.712 19.733C68.6243 19.9562 68.3713 20.0665 68.1484 19.9784L68.1476 19.9781C67.9244 19.8914 67.8141 19.6391 67.9019 19.4162L67.9019 19.4162C68.393 18.168 68.5869 16.918 68.7837 15.6488C68.8217 15.4036 68.8599 15.1576 68.9003 14.9108M68.712 19.733L68.9003 14.9108M67.7669 19.3631C68.2517 18.1312 68.4428 16.8995 68.6398 15.6304C68.678 15.3842 68.7164 15.1366 68.7572 14.8873M67.7669 19.3631L68.9003 14.9109L68.7572 14.8873M67.7669 19.3631C67.6498 19.6606 67.7968 19.9974 68.0951 20.1133L67.7669 19.3631ZM68.7572 14.8873L68.9003 14.9108M68.7572 14.8873C68.8091 14.5714 69.1076 14.3565 69.4237 14.4086L68.9003 14.9108M68.9003 14.9108C68.9393 14.6737 69.1633 14.5127 69.4001 14.5517C69.6375 14.5908 69.7981 14.8139 69.7594 15.0505L68.9003 14.9108Z" fill="#011625" stroke="#011625" stroke-width="0.29"/>
<path d="M71.705 23.2206L71.7052 23.2205C74.7001 21.1459 77.6346 18.3535 79.8148 15.4309L71.705 23.2206ZM71.705 23.2206C71.5081 23.3573 71.2365 23.3081 71.0992 23.1115C70.9625 22.9157 71.0108 22.6453 71.208 22.5083C74.1279 20.4869 76.9887 17.7649 79.1161 14.9133L79.1162 14.9133M71.705 23.2206L79.1162 14.9133M79.1162 14.9133C79.2592 14.7213 79.5322 14.6815 79.7255 14.8244C79.9178 14.9666 79.958 15.2386 79.8148 15.4308L79.1162 14.9133Z" fill="#011625" stroke="#011625" stroke-width="0.29"/>
<path d="M79.7414 25.1314L79.7415 25.1316C79.8073 25.3593 79.6749 25.6 79.4432 25.6671C77.0952 26.3379 74.5089 26.6792 72.151 25.9594C71.9213 25.8892 71.7922 25.6455 71.862 25.4179L71.862 25.4178C71.9318 25.1901 72.1752 25.0603 72.4052 25.1306L72.4052 25.1306C74.6284 25.8089 77.0448 25.4504 79.2027 24.8331C79.434 24.7677 79.6753 24.9013 79.7414 25.1314Z" fill="#011625" stroke="#011625" stroke-width="0.29"/>
<circle cx="72.2898" cy="30.24" r="1.74" fill="#417BA4"/>
<circle cx="57.7898" cy="12.26" r="1.74" fill="#417BA4"/>
<path d="M61.1373 19.9336C60.9872 19.3118 60.1028 19.3118 59.9527 19.9336L59.7583 20.739C59.7047 20.9612 59.5312 21.1347 59.309 21.1883L58.5036 21.3827C57.8819 21.5328 57.8819 22.4172 58.5036 22.5673L59.309 22.7617C59.5312 22.8153 59.7047 22.9888 59.7583 23.211L59.9527 24.0164C60.1028 24.6382 60.9872 24.6382 61.1373 24.0164L61.3317 23.211C61.3854 22.9888 61.5588 22.8153 61.781 22.7617L62.5864 22.5673C63.2082 22.4172 63.2082 21.5328 62.5864 21.3827L61.781 21.1883C61.5588 21.1347 61.3854 20.9612 61.3317 20.739L61.1373 19.9336Z" fill="#417BA4"/>
<path fill-rule="evenodd" clip-rule="evenodd" d="M53.7193 6.5503C53.8951 6.99746 53.6752 7.5025 53.228 7.67833C51.9517 8.18023 50.3159 9.7969 49.2238 11.8092C48.3925 13.3409 47.9887 14.8877 48.1583 16.1537C48.669 15.4247 49.2804 14.8267 49.9896 14.4425C51.2609 13.7539 52.7113 13.827 54.1156 14.7839C55.3425 15.6201 55.8429 16.8098 55.7104 17.9953C55.5837 19.1287 54.8923 20.1533 53.9543 20.797C53.0023 21.4504 51.7382 21.7516 50.4342 21.3523C49.695 21.126 48.9861 20.6883 48.3373 20.0236C47.7185 22.4331 47.7408 25.4511 48.7637 28.1203C48.9356 28.569 48.7113 29.0721 48.2626 29.244C47.8139 29.416 47.3108 29.1916 47.1389 28.743C45.7899 25.2227 45.9651 21.2023 47.0652 18.2742C47.0339 18.2177 47.0029 18.1605 46.9722 18.1025C45.8149 15.9175 46.5078 13.1657 47.6945 10.9792C48.8904 8.77574 50.7868 6.76861 52.5912 6.05903C53.0384 5.8832 53.5434 6.10314 53.7193 6.5503ZM49.0189 18.1246C49.6759 19.058 50.3576 19.5091 50.9437 19.6886C51.6817 19.9146 52.4013 19.7525 52.9698 19.3624C53.5523 18.9626 53.9183 18.3637 53.9811 17.802C54.0381 17.2923 53.86 16.7154 53.1357 16.2218C52.2177 15.5962 51.4639 15.6228 50.8184 15.9725C50.1747 16.3211 49.5374 17.0507 49.0189 18.1246Z" fill="#E3E3E3"/>
<path fill-rule="evenodd" clip-rule="evenodd" d="M81.8041 40.5763C72.6848 37.1868 65.706 41.4015 63.4493 43.7854C62.8988 44.3669 61.981 44.3921 61.3995 43.8415C60.8179 43.291 60.7928 42.3732 61.3433 41.7917C64.2092 38.7644 72.3671 33.9749 82.8145 37.858C83.5651 38.137 83.9475 38.9717 83.6685 39.7223C83.3895 40.473 82.5548 40.8553 81.8041 40.5763Z" fill="#CCC6D9"/>
<path fill-rule="evenodd" clip-rule="evenodd" d="M72.5274 43.6234C72.7309 43.5489 72.945 43.4499 73.1102 43.3065C73.3063 43.1362 73.3861 42.9169 73.4396 42.686C73.5084 42.3894 73.5359 42.0734 73.6193 41.7763C73.6501 41.666 73.7096 41.6243 73.735 41.6058C73.7995 41.559 73.8646 41.5465 73.9259 41.5512C73.9985 41.5566 74.0983 41.5849 74.1639 41.71C74.1733 41.7279 74.1854 41.7552 74.1936 41.7925C74.1996 41.8199 74.2034 41.9056 74.2098 41.941C74.2256 42.028 74.2388 42.115 74.2512 42.2025C74.2925 42.4937 74.3162 42.741 74.4466 43.0086C74.6236 43.3718 74.8009 43.594 75.0413 43.6924C75.2738 43.7876 75.5518 43.7697 75.907 43.695C75.9408 43.6866 75.9743 43.6794 76.0074 43.6735C76.164 43.6454 76.3137 43.7511 76.3444 43.9114C76.3752 44.0716 76.2757 44.2277 76.1205 44.2629C76.0881 44.2702 76.0561 44.2772 76.0246 44.2836C75.5446 44.4057 74.9889 44.8415 74.666 45.2231C74.5665 45.3407 74.4208 45.6697 74.2721 45.8795C74.1624 46.0343 74.0391 46.1363 73.9356 46.1724C73.8663 46.1967 73.8078 46.1929 73.7595 46.1807C73.6893 46.1629 73.6311 46.1238 73.5864 46.0617C73.5621 46.0277 73.5395 45.9821 73.5287 45.924C73.5236 45.896 73.523 45.8248 73.5231 45.7926C73.4928 45.6855 73.4558 45.581 73.4287 45.4729C73.3643 45.2151 73.2379 45.0519 73.0877 44.8363C72.9472 44.6345 72.7964 44.5077 72.5752 44.4065C72.5464 44.3993 72.3143 44.3409 72.2323 44.3074C72.1125 44.2582 72.0555 44.1759 72.0348 44.1316C71.9996 44.0563 71.9959 43.9906 72.0029 43.9358C72.0134 43.8549 72.0487 43.7857 72.1114 43.7298C72.1502 43.695 72.2082 43.6613 72.2859 43.6448C72.3459 43.6319 72.505 43.6245 72.5274 43.6234ZM73.8893 43.2033C73.9001 43.2279 73.9115 43.2527 73.9237 43.2776C74.1829 43.8096 74.4727 44.1066 74.8249 44.2507L74.8368 44.2553C74.6011 44.4351 74.3878 44.6361 74.2247 44.8287C74.1576 44.9081 74.0687 45.0728 73.9727 45.2418C73.8855 44.9504 73.7428 44.7444 73.5634 44.4866C73.4263 44.2898 73.2827 44.1418 73.1062 44.0211C73.2431 43.9489 73.3738 43.8643 73.4876 43.7655C73.677 43.6009 73.8023 43.4103 73.8893 43.2033Z" fill="#417BA4"/>
<path d="M22.057 44.4183L22.057 44.4184C20.9247 45.4369 20.2829 46.696 20.0962 48.2084C20.0647 48.4712 19.8255 48.658 19.5628 48.6249L19.5626 48.6249C19.3017 48.5917 19.1146 48.352 19.1477 48.0892M22.057 44.4183L19.2915 48.1072M22.057 44.4183C22.2529 44.242 22.2697 43.9389 22.0934 43.7417C21.9181 43.5438 21.615 43.5268 21.4186 43.7036M22.057 44.4183L21.5156 43.8114M19.1477 48.0892C19.1477 48.0892 19.1477 48.0891 19.1477 48.089L19.2915 48.1072M19.1477 48.0892C19.1477 48.0893 19.1476 48.0894 19.1476 48.0894L19.2915 48.1072M19.1477 48.0892C19.3632 46.3434 20.1094 44.8818 21.4186 43.7036M19.2915 48.1072C19.5029 46.3951 20.233 44.9657 21.5156 43.8114M21.4186 43.7036C21.4186 43.7036 21.4186 43.7036 21.4186 43.7036L21.5156 43.8114M21.4186 43.7036L21.5156 43.8114" fill="#011625" stroke="#011625" stroke-width="0.29"/>
<path d="M4.60251 51.2175L4.60242 51.2174C4.24995 51.1034 4.08202 50.8044 4.05714 50.459M4.60251 51.2175L4.20177 50.4486M4.60251 51.2175C5.01484 51.3506 5.3369 51.2853 5.5745 51.1143C5.80112 50.9515 5.94363 50.687 6.00633 50.3764L6.00634 50.3764C6.06605 50.0799 6.0526 49.7287 6.00451 49.4018C5.96126 49.1078 5.88857 48.8239 5.80805 48.6034C6.0186 48.3083 6.25503 48.032 6.51347 47.777C8.55317 45.7644 12.061 45.803 15.1192 47.8826C15.6306 48.2305 16.0755 48.8368 16.4641 49.6143C16.8516 50.3894 17.1763 51.321 17.4545 52.3034C18.2082 54.9639 18.5728 57.9705 18.745 59.3905C18.7708 59.6035 18.7923 59.7808 18.8102 59.9158L18.8102 59.9162C18.8279 60.0482 18.8495 60.154 18.8695 60.232C18.8795 60.2708 18.8893 60.3037 18.8985 60.33C18.9061 60.3518 18.9169 60.3799 18.9311 60.4025C19.0519 60.5962 19.2235 60.6278 19.3289 60.6308L19.3305 60.6309C19.4789 60.6336 19.5945 60.5865 19.683 60.5205L19.6837 60.52C19.8043 60.4291 19.8889 60.2901 19.9076 60.1068L19.9077 60.1057C19.9171 60.0056 19.9021 59.8824 19.8807 59.767L19.8805 59.7656C19.876 59.7425 19.8706 59.7199 19.8657 59.7C19.8606 59.6789 19.8562 59.6617 19.8524 59.6446C19.8487 59.6279 19.8463 59.6149 19.845 59.6045C19.8443 59.5986 19.8441 59.5947 19.8441 59.5925C19.8441 59.5906 19.8442 59.5899 19.8442 59.5901M4.60251 51.2175L4.34196 49.6436M4.05714 50.459L4.20177 50.4486M4.05714 50.459C4.05716 50.4592 4.05717 50.4593 4.05718 50.4595L4.20177 50.4486M4.05714 50.459C4.03337 50.1426 4.14196 49.767 4.2059 49.5935M4.20177 50.4486C4.18024 50.1638 4.28001 49.8117 4.34196 49.6436M4.2059 49.5935C4.20589 49.5935 4.20588 49.5935 4.20587 49.5936L4.34196 49.6436M4.2059 49.5935L4.34196 49.6436M4.2059 49.5935C4.33687 49.2373 4.50032 48.8951 4.69007 48.5697C3.20261 46.5764 0.542875 46.0962 -1.51685 47.475L-1.51702 47.4751C-1.73772 47.6224 -2.03369 47.5613 -2.18061 47.342L-2.18114 47.3412L-2.18114 47.3412C-2.32617 47.1215 -2.2687 46.8239 -2.04817 46.6766M-2.04817 46.6766C-2.04814 46.6766 -2.04811 46.6766 -2.04808 46.6766L-1.96759 46.7972M-2.04817 46.6766C-2.0482 46.6767 -2.04823 46.6767 -2.04826 46.6767L-1.96759 46.7972M-2.04817 46.6766C0.352356 45.0697 3.43288 45.5514 5.25695 47.7438C5.4392 47.515 5.63557 47.2975 5.84314 47.0924L5.84318 47.0924C8.21392 44.7522 12.2287 44.7591 15.6543 47.0886L15.6543 47.0887C16.2061 47.4641 16.6855 48.0648 17.0996 48.7983C17.5145 49.5332 17.869 50.4104 18.1666 51.3495C18.7419 53.1643 19.1231 55.2208 19.3741 56.8825C19.5677 56.0907 19.8032 55.3129 20.0617 54.5338L20.0617 54.5338C20.1617 54.2325 20.2612 53.9299 20.3611 53.6264C21.5542 50.0004 22.7871 46.2531 25.2396 43.2361L25.24 43.2356C25.4075 43.0312 25.7086 43 25.9127 43.1687C26.1175 43.3367 26.1464 43.6389 25.9806 43.843L25.9805 43.8431C23.6313 46.7338 22.4509 50.3279 21.2889 53.8659C21.1822 54.1906 21.0757 54.5149 20.9685 54.8381L20.8309 54.7924L20.9685 54.8381C20.5691 56.0413 20.2291 57.2323 20.0187 58.4767L20.0187 58.4771C20.0105 58.5248 20.0023 58.5724 19.9941 58.6199C19.9379 58.9456 19.8826 59.2659 19.8442 59.5901M-1.96759 46.7972C-2.12101 46.8996 -2.16174 47.1074 -2.06014 47.2613L-1.96759 46.7972ZM19.8442 59.5901C19.8441 59.5902 19.8441 59.5904 19.8441 59.5906L19.7001 59.5735L19.8442 59.5901ZM5.01991 50.3318C5.01814 50.3319 5.01546 50.332 5.01165 50.3318C5.01105 50.3318 5.01044 50.3318 5.00981 50.3317C5.00982 50.3308 5.00985 50.3299 5.00987 50.3291C5.01744 50.1924 5.06202 50.0411 5.0949 49.9475C5.09243 50.032 5.08431 50.1121 5.06953 50.1847L5.0695 50.1848C5.05938 50.2348 5.05065 50.2707 5.03956 50.2981C5.03118 50.3188 5.02409 50.3278 5.01991 50.3318Z" fill="#011625" stroke="#011625" stroke-width="0.29"/>
<defs>
<linearGradient id="paint0_linear_52_137" x1="44.3319" y1="-0.285598" x2="45.0299" y2="119.381" gradientUnits="userSpaceOnUse">
<stop stop-color="#F2F2F2"/>
<stop offset="1" stop-color="#EFEFEF"/>
</linearGradient>
</defs>
</svg>
